<svg height="480pt" viewBox="0 0 480 480" width="480pt" xmlns="http://www.w3.org/2000/svg"><path d="m176 280c-30.929688 0-56 25.070312-56 56 0-30.929688-25.070312-56-56-56s-56 25.070312-56 56 81.070312 136 112 136 112-105.070312 112-136-25.070312-56-56-56zm0 0" fill="#fc95a9"/><path d="m416 280c-30.929688 0-56 25.070312-56 56 0-30.929688-25.070312-56-56-56s-56 25.070312-56 56 81.070312 136 112 136 112-105.070312 112-136-25.070312-56-56-56zm0 0" fill="#fc95a9"/><path d="m176 272c-23.285156.015625-44.726562 12.664062-56 33.039062-10.058594-18.234374-28.378906-30.421874-49.085938-32.648437-20.707031-2.230469-41.203124 5.773437-54.914062 21.449219v-237.839844c0-22.089844 17.910156-40 40-40s40 17.910156 40 40c0 4.417969 3.582031 8 8 8s8-3.582031 8-8c0-30.929688-25.070312-56-56-56s-56 25.070312-56 56v280c0 35.199219 84.425781 144 120 144s120-108.800781 120-144c-.039062-35.328125-28.671875-63.960938-64-64zm-56 192c-24.304688 0-104-98.097656-104-128 0-26.507812 21.492188-48 48-48s48 21.492188 48 48v6.527344c0 4.417968 3.582031 8 8 8s8-3.582032 8-8v-6.527344c0-26.507812 21.492188-48 48-48s48 21.492188 48 48c0 29.902344-79.695312 128-104 128zm0 0"/><path d="m424 0c-30.914062.0351562-55.964844 25.085938-56 56 0 4.417969 3.582031 8 8 8s8-3.582031 8-8c0-22.089844 17.910156-40 40-40s40 17.910156 40 40v237.808594c-13.710938-15.675782-34.207031-23.683594-54.914062-21.453125-20.707032 2.230469-39.027344 14.417969-49.085938 32.652343-14.128906-25.535156-43.746094-38.28125-72.003906-30.984374-28.257813 7.300781-48 32.792968-47.996094 61.976562 0 35.199219 84.425781 144 120 144s120-108.800781 120-144v-280c-.035156-30.914062-25.085938-55.9648438-56-56zm-64 464c-24.304688 0-104-98.097656-104-128 0-26.507812 21.492188-48 48-48s48 21.492188 48 48v6.527344c0 4.417968 3.582031 8 8 8s8-3.582032 8-8v-6.527344c0-26.507812 21.492188-48 48-48s48 21.492188 48 48c0 29.902344-79.695312 128-104 128zm0 0"/></svg>